<svg width="108" height="25" viewBox="0 0 108 25" fill="none" xmlns="http://www.w3.org/2000/svg">
<path d="M5.74511 19.1726C4.83694 19.1726 4.07172 18.9539 3.44945 18.5166C2.844 18.0794 2.54128 17.4655 2.54128 16.6751V8.62765H0.624023V8.37538L2.89446 7.4672L5.11444 4.69223H5.46762V7.4672H8.89849V8.62765H5.46762V16.1201C5.46762 16.5405 5.65261 16.8601 6.02261 17.0787C6.39261 17.2805 6.83829 17.3814 7.35964 17.3814C7.67919 17.3814 7.96509 17.3646 8.21736 17.331C8.48645 17.2973 8.73031 17.2553 8.94895 17.2048L9.02463 17.2301V17.5833C8.78918 17.9701 8.37713 18.3317 7.7885 18.668C7.19987 19.0044 6.51874 19.1726 5.74511 19.1726Z" fill="white"/>
<path d="M12.5324 4.51564C12.0446 4.51564 11.641 4.35587 11.3215 4.03633C11.0019 3.69997 10.8422 3.28793 10.8422 2.8002C10.8422 2.31248 11.0019 1.90885 11.3215 1.5893C11.641 1.26976 12.0446 1.10999 12.5324 1.10999C13.0201 1.10999 13.4237 1.26976 13.7433 1.5893C14.0796 1.90885 14.2478 2.31248 14.2478 2.8002C14.2478 3.28793 14.0796 3.69997 13.7433 4.03633C13.4237 4.35587 13.0201 4.51564 12.5324 4.51564ZM9.50512 18.9203V18.5166L11.1449 17.7094V10.0908L9.58081 8.87992V8.60242L13.8189 7.21493H14.0712V17.7094L15.6101 18.5166V18.9203H9.50512Z" fill="white"/>
<path d="M16.4979 18.9203V18.5166L18.1377 17.7094V8.62765H16.1952V7.4672H18.1377V6.60949C18.1377 6.20585 18.247 5.71813 18.4657 5.14632C18.7011 4.5745 19.0122 3.99428 19.3991 3.40565C19.8027 2.8002 20.2736 2.24521 20.8118 1.74067C21.3499 1.21931 21.9302 0.798858 22.5524 0.479315C23.1747 0.159772 23.8138 0 24.4697 0C24.6379 0 24.8145 0.0252272 24.9995 0.0756817C25.1845 0.126136 25.3442 0.184999 25.4788 0.252272C25.916 0.470905 26.1347 0.689539 26.1347 0.908173C26.1347 1.07635 26.0926 1.23613 26.0085 1.38749L25.4031 2.69929H25.2013L24.6463 2.47225C24.3772 2.33771 24.1165 2.24521 23.8642 2.19475C23.6288 2.12748 23.3597 2.09384 23.057 2.09384C22.2497 2.09384 21.7115 2.37975 21.4424 2.95156C21.1734 3.52338 21.0388 4.44837 21.0388 5.72654V7.4672H24.1922V8.62765H21.0388V17.7346L22.9308 18.5166V18.9203H16.4979Z" fill="white"/>
<path d="M23.0412 18.9203V18.5166L24.681 17.7094V8.62765H22.7385V7.4672H24.681V6.60949C24.681 6.20585 24.7903 5.71813 25.0089 5.14632C25.2444 4.5745 25.5555 3.99428 25.9423 3.40565C26.3459 2.8002 26.8169 2.24521 27.355 1.74067C27.8932 1.21931 28.4734 0.798858 29.0957 0.479315C29.718 0.159772 30.357 0 31.013 0C31.1811 0 31.3577 0.0252272 31.5427 0.0756817C31.7277 0.126136 31.8875 0.184999 32.022 0.252272C32.4593 0.470905 32.6779 0.689539 32.6779 0.908173C32.6779 1.07635 32.6359 1.23613 32.5518 1.38749L31.9464 2.69929H31.7445L31.1895 2.47225C30.9205 2.33771 30.6598 2.24521 30.4075 2.19475C30.1721 2.12748 29.903 2.09384 29.6002 2.09384C28.793 2.09384 28.2548 2.37975 27.9857 2.95156C27.7166 3.52338 27.5821 4.44837 27.5821 5.72654V7.4672H30.7355V8.62765H27.5821V17.7346L29.4741 18.5166V18.9203H23.0412Z" fill="white"/>
<path d="M33.5956 19.1726C32.7883 19.1726 32.0988 18.9287 31.527 18.441C30.972 17.9532 30.7029 17.2637 30.7197 16.3724C30.7365 15.4978 31.0308 14.783 31.6026 14.2281C32.1744 13.6562 33.234 13.1853 34.7812 12.8153L37.1526 12.2351V10.5701C37.1526 9.94787 36.9424 9.44332 36.5219 9.05651C36.1015 8.65288 35.5969 8.45106 35.0083 8.45106C34.4197 8.45106 34.0076 8.59401 33.7722 8.87992C33.5367 9.14901 33.419 9.54423 33.419 10.0656V11.0494L33.2928 11.1504H31.7792C31.527 11.1504 31.3504 11.0999 31.2495 10.999C31.1485 10.8981 31.0981 10.6963 31.0981 10.3935C31.0981 9.60309 31.6026 8.90515 32.6117 8.2997C33.1499 7.96334 33.6797 7.70266 34.201 7.51766C34.7392 7.31584 35.3026 7.21493 35.8912 7.21493C36.6312 7.21493 37.3208 7.31584 37.9598 7.51766C38.5989 7.71948 39.1119 8.03902 39.4987 8.47629C39.8855 8.91356 40.0789 9.50219 40.0789 10.2422V17.1292C40.3144 17.3983 40.7432 17.5328 41.3655 17.5328H42.198L42.2737 17.6085V17.8607C42.0719 18.1971 41.7607 18.4998 41.3403 18.7689C40.9198 19.038 40.3816 19.1726 39.7257 19.1726C39.0867 19.1726 38.5653 19.0296 38.1617 18.7437C37.7748 18.441 37.4974 18.0373 37.3292 17.5328H37.1526C36.7153 18.0037 36.194 18.3989 35.5885 18.7185C34.9831 19.0212 34.3187 19.1726 33.5956 19.1726ZM33.4947 15.7417C33.4947 16.2799 33.646 16.6835 33.9487 16.9526C34.2683 17.2048 34.7056 17.331 35.2606 17.331C35.5801 17.331 35.8828 17.2973 36.1687 17.2301C36.4715 17.1628 36.7994 17.0535 37.1526 16.9021V13.1937C36.1099 13.3956 35.3278 13.6226 34.8065 13.8749C34.2851 14.1103 33.9319 14.3794 33.7469 14.6821C33.5788 14.9849 33.4947 15.338 33.4947 15.7417Z" fill="white"/>
<path d="M42.1452 18.9203V18.5166L43.7849 17.7094V10.0908L42.2209 8.9556V8.70333L46.2067 7.21493H46.459L46.686 9.08174H46.8122C47.4344 8.47629 48.0315 8.01379 48.6033 7.69425C49.1919 7.37471 49.8562 7.21493 50.5962 7.21493C51.6053 7.21493 52.4294 7.47561 53.0685 7.99697C53.7244 8.51833 54.0523 9.27514 54.0523 10.2674V17.7094L55.6921 18.5166V18.9203H49.6376V18.5166L51.126 17.7094V11.3522C51.126 10.7131 50.9326 10.2254 50.5458 9.889C50.159 9.53582 49.6544 9.35923 49.0322 9.35923C48.6453 9.35923 48.2333 9.42651 47.796 9.56105C47.3588 9.69559 46.9972 9.88059 46.7113 10.116V17.7094L48.1997 18.5166V18.9203H42.1452Z" fill="white"/>
<path d="M57.0715 25C56.6847 25 56.4408 24.9411 56.3399 24.8234C56.2558 24.7225 56.2138 24.5375 56.2138 24.2684V22.7296L56.3399 22.6034H57.4751C57.8956 22.6034 58.2319 22.5698 58.4842 22.5025C58.7365 22.4353 58.9635 22.2587 59.1653 21.9728C59.384 21.6868 59.6362 21.2244 59.9222 20.5853L60.6537 18.8698L55.8101 8.60242L54.1956 7.87084V7.4672H60.7799V7.87084L59.014 8.62765V8.72856L62.0412 15.1615H62.1926L64.5892 8.85469V8.72856L62.9242 7.87084V7.4672H67.793V7.87084L65.9766 8.72856L60.9565 20.9132C60.8051 21.3 60.6706 21.6196 60.5528 21.8718C60.4519 22.1409 60.3342 22.3932 60.1997 22.6287C60.0651 22.8809 59.8717 23.1837 59.6194 23.5368C59.2831 24.0246 58.8794 24.3861 58.4085 24.6216C57.9376 24.8739 57.4919 25 57.0715 25Z" fill="white"/>
<path d="M76.2576 19.1726C75.3495 19.1726 74.5843 18.9539 73.962 18.5166C73.3565 18.0794 73.0538 17.4655 73.0538 16.6751V8.62765H71.1366V8.37538L73.407 7.4672L75.627 4.69223H75.9802V7.4672H79.411V8.62765H75.9802V16.1201C75.9802 16.5405 76.1651 16.8601 76.5351 17.0787C76.9051 17.2805 77.3508 17.3814 77.8722 17.3814C78.1917 17.3814 78.4776 17.3646 78.7299 17.331C78.999 17.2973 79.2429 17.2553 79.4615 17.2048L79.5372 17.2301V17.5833C79.3017 17.9701 78.8897 18.3317 78.301 18.668C77.7124 19.0044 77.0313 19.1726 76.2576 19.1726Z" fill="white"/>
<path d="M84.281 19.1726C83.457 19.1726 82.7506 19.0969 82.162 18.9455C81.5733 18.7941 80.9847 18.5755 80.3961 18.2896V15.3885H80.7493L81.607 16.7508C82.1956 17.6757 83.0533 18.1382 84.1801 18.1382C84.836 18.1382 85.3406 18.0037 85.6937 17.7346C86.0469 17.4487 86.2235 17.0619 86.2235 16.5742C86.2235 16.1537 86.1226 15.8258 85.9208 15.5903C85.719 15.338 85.3994 15.111 84.9622 14.9092C84.5417 14.7074 84.0035 14.4635 83.3476 14.1776C82.4395 13.7908 81.7583 13.3535 81.3042 12.8658C80.8502 12.3613 80.6231 11.7138 80.6231 10.9233C80.6231 10.2338 80.7997 9.6115 81.1529 9.05651C81.5229 8.4847 82.0106 8.03902 82.6161 7.71947C83.2383 7.38311 83.911 7.21493 84.6342 7.21493C85.2228 7.21493 85.7863 7.28221 86.3244 7.41675C86.8626 7.5513 87.4008 7.75311 87.939 8.0222V10.9233H87.5605L86.7533 9.68719C86.1647 8.76219 85.4583 8.2997 84.6342 8.2997C84.1129 8.2997 83.684 8.43424 83.3476 8.70333C83.0281 8.9556 82.8683 9.3256 82.8683 9.81332C82.8683 10.301 83.0449 10.6879 83.3981 10.9738C83.7681 11.2597 84.424 11.596 85.3658 11.9828C85.8367 12.2015 86.3076 12.4285 86.7785 12.664C87.2494 12.8994 87.6362 13.2358 87.939 13.6731C88.2585 14.1103 88.4183 14.7242 88.4183 15.5146C88.4183 16.2883 88.208 16.9526 87.7876 17.5076C87.384 18.0457 86.8626 18.4578 86.2235 18.7437C85.5844 19.0296 84.9369 19.1726 84.281 19.1726Z" fill="white"/>
<path d="M92.5194 19.1726C91.7122 19.1726 91.0226 18.9287 90.4508 18.441C89.8958 17.9532 89.6267 17.2637 89.6436 16.3724C89.6604 15.4978 89.9547 14.783 90.5265 14.2281C91.0983 13.6562 92.1579 13.1853 93.7051 12.8153L96.0765 12.2351V10.5701C96.0765 9.94787 95.8662 9.44332 95.4458 9.05651C95.0253 8.65288 94.5208 8.45106 93.9322 8.45106C93.3435 8.45106 92.9315 8.59401 92.696 8.87992C92.4606 9.14901 92.3428 9.54423 92.3428 10.0656V11.0494L92.2167 11.1504H90.7031C90.4508 11.1504 90.2742 11.0999 90.1733 10.999C90.0724 10.8981 90.022 10.6963 90.022 10.3935C90.022 9.60309 90.5265 8.90515 91.5356 8.2997C92.0738 7.96334 92.6035 7.70266 93.1249 7.51766C93.6631 7.31584 94.2265 7.21493 94.8151 7.21493C95.5551 7.21493 96.2446 7.31584 96.8837 7.51766C97.5228 7.71948 98.0358 8.03902 98.4226 8.47629C98.8094 8.91356 99.0028 9.50219 99.0028 10.2422V17.1292C99.2382 17.3983 99.6671 17.5328 100.289 17.5328H101.122L101.198 17.6085V17.8607C100.996 18.1971 100.685 18.4998 100.264 18.7689C99.8437 19.038 99.3055 19.1726 98.6496 19.1726C98.0105 19.1726 97.4892 19.0296 97.0855 18.7437C96.6987 18.441 96.4212 18.0373 96.253 17.5328H96.0765C95.6392 18.0037 95.1178 18.3989 94.5124 18.7185C93.9069 19.0212 93.2426 19.1726 92.5194 19.1726ZM92.4185 15.7417C92.4185 16.2799 92.5699 16.6835 92.8726 16.9526C93.1922 17.2048 93.6294 17.331 94.1844 17.331C94.504 17.331 94.8067 17.2973 95.0926 17.2301C95.3953 17.1628 95.7233 17.0535 96.0765 16.9021V13.1937C95.0337 13.3956 94.2517 13.6226 93.7303 13.8749C93.209 14.1103 92.8558 14.3794 92.6708 14.6821C92.5026 14.9849 92.4185 15.338 92.4185 15.7417Z" fill="white"/>
<path d="M104.197 4.51564C103.709 4.51564 103.306 4.35587 102.986 4.03633C102.667 3.69997 102.507 3.28793 102.507 2.8002C102.507 2.31248 102.667 1.90885 102.986 1.5893C103.306 1.26976 103.709 1.10999 104.197 1.10999C104.685 1.10999 105.089 1.26976 105.408 1.5893C105.744 1.90885 105.913 2.31248 105.913 2.8002C105.913 3.28793 105.744 3.69997 105.408 4.03633C105.089 4.35587 104.685 4.51564 104.197 4.51564ZM101.17 18.9203V18.5166L102.81 17.7094V10.0908L101.246 8.87992V8.60242L105.484 7.21493H105.736V17.7094L107.275 18.5166V18.9203H101.17Z" fill="white"/>
</svg>
