<svg width="65" height="65" viewBox="0 0 65 65" fill="none" xmlns="http://www.w3.org/2000/svg">
<path fill-rule="evenodd" clip-rule="evenodd" d="M64 32.5C64 49.897 49.897 64 32.5 64C15.103 64 1 49.897 1 32.5C1 15.103 15.103 1 32.5 1C49.897 1 64 15.103 64 32.5ZM65 32.5C65 50.4493 50.4493 65 32.5 65C14.5507 65 0 50.4493 0 32.5C0 14.5507 14.5507 0 32.5 0C50.4493 0 65 14.5507 65 32.5ZM21.7564 46.4707C23.1717 47.395 24.9861 47.8571 27.1998 47.8571C28.9053 47.8571 30.4476 47.5194 31.8266 46.844C33.0585 46.2088 33.9863 45.5169 34.6101 44.7683C34.9638 45.4326 35.501 46.0001 36.2217 46.4707C37.6369 47.395 39.4514 47.8571 41.665 47.8571C43.3706 47.8571 44.9129 47.5194 46.2919 46.844C47.6709 46.133 48.6688 45.3509 49.2857 44.4978V43.5913L49.1224 43.4846C48.6144 43.5913 48.0882 43.6979 47.5438 43.8046C47.0358 43.8757 46.437 43.9112 45.7475 43.9112C44.6589 43.9112 43.7154 43.6979 42.917 43.2713C42.1186 42.8447 41.7195 42.1693 41.7195 41.245V25.408H49.2857V23.0084H41.7195V17.1429H40.6852L35.1874 23.0084L34.8204 23.1296V23.0084H27.2542V17.1429H26.2199L20.7222 23.0084L15.7143 24.6615V25.408H19.6335V42.5781C19.6335 44.2489 20.3411 45.5465 21.7564 46.4707ZM34.0988 25.408H30.1796H27.2542V41.245C27.2542 42.1693 27.6534 42.8447 28.4517 43.2713C29.2501 43.6979 30.1936 43.9112 31.2823 43.9112C31.9718 43.9112 32.5705 43.8757 33.0786 43.8046C33.4587 43.7301 33.8299 43.6556 34.1924 43.5812C34.13 43.2633 34.0988 42.9289 34.0988 42.5781V25.408Z" fill="#0D3735"/>
</svg>
