<svg width="75" height="75" viewBox="0 0 75 75" fill="none" xmlns="http://www.w3.org/2000/svg">
<circle cx="37.5" cy="37.5" r="37.5" fill="#0D3735"/>
<path d="M24.4627 28.2119L26.3587 34.2239L28.2787 28.2119H29.7667L27.0907 35.9999H25.6027L22.9627 28.2119H24.4627Z" fill="white"/>
<path d="M31.1277 28.2119H32.5437V35.9999H31.1277V28.2119Z" fill="white"/>
<path d="M34.7603 28.2119H39.7763V29.4359H36.1763V31.4879H39.5483V32.7119H36.1763V34.7639H39.7763V35.9999H34.7603V28.2119Z" fill="white"/>
<path d="M42.5115 28.2119L44.2275 34.1279L45.8955 28.7279H46.8555L48.6195 34.1519L50.4435 28.2119H52.0395L49.3635 35.9999H47.8755L46.4115 31.6079L44.9595 35.9999H43.4715L40.9275 28.2119H42.5115Z" fill="white"/>
<path d="M21.6463 40.2119L23.3623 46.1279L25.0303 40.7279H25.9903L27.7543 46.1519L29.5783 40.2119H31.1743L28.4983 47.9999H27.0103L25.5463 43.6079L24.0943 47.9999H22.6063L20.0623 40.2119H21.6463Z" fill="white"/>
<path d="M35.5161 40.0559C36.0361 40.0559 36.5121 40.1439 36.9441 40.3199C37.3761 40.4879 37.7481 40.7399 38.0601 41.0759C38.7161 41.7799 39.0441 42.7879 39.0441 44.0999C39.0441 45.4199 38.7161 46.4399 38.0601 47.1599C37.4361 47.8319 36.5841 48.1679 35.5041 48.1679C34.4321 48.1679 33.5841 47.8239 32.9601 47.1359C32.3041 46.4239 31.9761 45.4119 31.9761 44.0999C31.9761 42.7719 32.3041 41.7559 32.9601 41.0519C33.5761 40.3879 34.4281 40.0559 35.5161 40.0559ZM37.5801 44.1239C37.5801 43.2279 37.3921 42.5399 37.0161 42.0599C36.6481 41.5719 36.1481 41.3279 35.5161 41.3279C34.8841 41.3279 34.3801 41.5719 34.0041 42.0599C33.6281 42.5399 33.4401 43.2279 33.4401 44.1239C33.4401 45.0119 33.6281 45.6959 34.0041 46.1759C34.3801 46.6479 34.8841 46.8839 35.5161 46.8839C36.1481 46.8839 36.6481 46.6479 37.0161 46.1759C37.3921 45.6959 37.5801 45.0119 37.5801 44.1239Z" fill="white"/>
<path d="M46.5035 42.5999C46.5035 43.1519 46.3475 43.6239 46.0355 44.0159C45.7235 44.4079 45.2755 44.6799 44.6915 44.8319L46.7795 47.9999H44.9315L43.2155 44.9639H42.1355V47.9999H40.7195V40.2119H43.5995C44.5195 40.2119 45.2355 40.4319 45.7475 40.8719C46.2515 41.2959 46.5035 41.8719 46.5035 42.5999ZM43.4675 44.0159C43.9875 44.0159 44.3795 43.8999 44.6435 43.6679C44.9075 43.4279 45.0395 43.1159 45.0395 42.7319C45.0395 42.3399 44.9195 42.0279 44.6795 41.7959C44.4395 41.5559 44.0795 41.4359 43.5995 41.4359H42.1355V44.0159H43.4675Z" fill="white"/>
<path d="M49.8702 40.2119V43.4159L52.9422 40.2119H54.8862L51.4542 43.7159L55.1142 47.9999H53.2782L50.5062 44.6999L49.8702 45.3479V47.9999H48.4422V40.2119H49.8702Z" fill="white"/>
</svg>
